<svg width="24" height="24" viewBox="0 0 24 24" fill="none" xmlns="http://www.w3.org/2000/svg">
<rect width="24" height="24" rx="3" fill="#0066FF"/>
<path d="M16.5861 6.0815L16.7073 5.08887L16.5861 6.0815ZM19.6403 16.41L20.3293 17.1348L20.3293 17.1348L19.6403 16.41ZM11.7661 16.3051L10.9293 15.7577L9.8345 17.4314L10.6714 17.9788L11.7661 16.3051ZM6.5 16.48C5.94772 16.48 5.5 16.9277 5.5 17.48C5.5 18.0323 5.94772 18.48 6.5 18.48V16.48ZM9.46454 14.7622L8.49932 14.5007L9.46454 14.7622ZM16.4649 7.07412C18.7913 7.35821 20.0144 8.84985 20.3825 10.6178C20.7656 12.4572 20.1962 14.502 18.9514 15.6852L20.3293 17.1348C22.1386 15.4151 22.8461 12.638 22.3405 10.2101C21.8201 7.71073 19.9889 5.4896 16.7073 5.08887L16.4649 7.07412ZM18.9514 15.6852C18.0398 16.5517 16.6195 16.9624 15.1369 16.9976C13.6372 17.0331 12.3381 16.6792 11.7661 16.3051L10.6714 17.9788C11.7042 18.6543 13.4549 19.038 15.1843 18.997C16.9307 18.9556 18.9188 18.4755 20.3293 17.1348L18.9514 15.6852ZM6.5 18.48C7.64665 18.48 8.55406 18.0959 9.22485 17.3926C9.85804 16.7286 10.2034 15.8592 10.4298 15.0236L8.49932 14.5007C8.30577 15.2153 8.07072 15.7048 7.77752 16.0123C7.52192 16.2803 7.157 16.48 6.5 16.48V18.48ZM10.4298 15.0236C10.6922 14.0545 10.8407 12.9193 11.0055 11.9238C11.1781 10.8808 11.3745 9.93657 11.718 9.14763C12.0527 8.37909 12.5043 7.81085 13.1688 7.45389C13.8453 7.09044 14.8674 6.87904 16.4649 7.07412L16.7073 5.08887C14.8493 4.86198 13.3758 5.07235 12.2223 5.69201C11.0567 6.31815 10.3437 7.29434 9.88433 8.34914C9.43389 9.38353 9.207 10.5416 9.0323 11.5973C8.84973 12.7005 8.72689 13.6605 8.49932 14.5007L10.4298 15.0236Z" fill="white"/>
<path d="M2.5 6V17.4837H6.41331" stroke="white" stroke-width="2" stroke-linecap="round"/>
</svg>
